<svg height="511pt" viewBox="1 1 511.9995 511" width="511pt" xmlns="http://www.w3.org/2000/svg"><path d="m502 106.65625-96.160156-96.160156-149.839844 149.84375-149.84375-149.84375-96.15625 96.160156 149.839844 149.84375-149.839844 149.839844 96.15625 96.160156 149.84375-149.84375 149.839844 149.84375 96.160156-96.160156-149.84375-149.839844zm0 0" fill="#ff6977"/><path d="m405.839844 512.496094c-2.558594 0-5.117188-.976563-7.070313-2.925782l-56.613281-56.617187c-3.90625-3.902344-3.90625-10.234375 0-14.140625s10.234375-3.90625 14.140625 0l49.546875 49.542969 82.015625-82.015625-142.773437-142.769532c-3.902344-3.90625-3.902344-10.238281 0-14.144531l142.773437-142.769531-82.019531-82.015625-142.769532 142.769531c-3.90625 3.902344-10.234374 3.902344-14.140624 0l-142.773438-142.769531-82.015625 82.015625 142.769531 142.769531c3.90625 3.90625 3.90625 10.238281 0 14.144531l-142.769531 142.769532 82.015625 82.015625 142.773438-142.769531c1.875-1.875 4.417968-2.929688 7.070312-2.929688s5.195312 1.054688 7.070312 2.929688l36.539063 36.539062c3.90625 3.90625 3.90625 10.238281 0 14.144531-3.90625 3.902344-10.234375 3.902344-14.140625 0l-29.472656-29.472656-142.769532 142.773437c-3.902343 3.902344-10.234374 3.902344-14.140624 0l-96.15625-96.160156c-3.90625-3.902344-3.90625-10.234375 0-14.140625l142.769531-142.773437-142.769531-142.769532c-3.90625-3.90625-3.90625-10.234374 0-14.140624l96.15625-96.160157c3.90625-3.902343 10.234374-3.902343 14.140624 0l142.773438 142.773438 142.769531-142.773438c3.910157-3.902343 10.238281-3.902343 14.144531 0l96.15625 96.160157c3.90625 3.90625 3.90625 10.234374 0 14.140624l-142.773437 142.773438 142.773437 142.769531c3.90625 3.90625 3.90625 10.238281 0 14.140625l-96.160156 96.160156c-1.949218 1.949219-4.507812 2.925782-7.070312 2.925782zm0 0"/><path d="m320.953125 427.582031c-2.640625 0-5.207031-1.066406-7.066406-2.929687-1.871094-1.859375-2.929688-4.4375-2.929688-7.066406 0-2.632813 1.058594-5.210938 2.929688-7.070313 1.859375-1.859375 4.4375-2.929687 7.066406-2.929687 2.621094 0 5.199219 1.070312 7.070313 2.929687 1.859374 1.859375 2.929687 4.4375 2.929687 7.070313 0 2.628906-1.070313 5.207031-2.929687 7.066406-1.871094 1.863281-4.4375 2.929687-7.070313 2.929687zm0 0"/></svg>